<svg width="607" height="93" viewBox="0 0 607 93" fill="none" xmlns="http://www.w3.org/2000/svg">
<path d="M0.320001 91V1.39999H18.368V38.392H28.224L50.88 1.39999H72.256L44.608 45.176L73.792 91H51.264L28.224 54.648H18.368V91H0.320001ZM154.581 79.48C145.877 88.0133 134.869 92.28 121.557 92.28C108.245 92.28 97.237 88.0133 88.533 79.48C79.9143 70.8613 75.605 59.7253 75.605 46.072C75.605 32.4187 79.9143 21.368 88.533 12.92C97.237 4.38666 108.245 0.119995 121.557 0.119995C134.869 0.119995 145.877 4.38666 154.581 12.92C163.285 21.368 167.637 32.4187 167.637 46.072C167.637 59.7253 163.285 70.8613 154.581 79.48ZM101.973 67.064C107.008 72.3547 113.536 75 121.557 75C129.578 75 136.106 72.3547 141.141 67.064C146.261 61.7733 148.821 54.8187 148.821 46.2C148.821 37.5813 146.261 30.6267 141.141 25.336C136.106 20.0453 129.578 17.4 121.557 17.4C113.536 17.4 107.008 20.0453 101.973 25.336C96.9383 30.6267 94.421 37.5813 94.421 46.2C94.421 54.8187 96.9383 61.7733 101.973 67.064ZM180.445 91V1.39999H215.645C226.141 1.39999 234.248 4.13066 239.965 9.592C245.768 14.968 248.669 22.3067 248.669 31.608C248.669 40.824 245.768 48.1627 239.965 53.624C234.248 59.0853 226.141 61.816 215.645 61.816H198.493V91H180.445ZM198.493 45.56H216.157C220.594 45.56 224.05 44.3227 226.525 41.848C229 39.3733 230.237 35.96 230.237 31.608C230.237 27.256 229 23.8427 226.525 21.368C224.05 18.8933 220.594 17.656 216.157 17.656H198.493V45.56ZM287.06 92.28C278.868 92.28 271.956 90.36 266.324 86.52C260.777 82.5947 257.364 77.048 256.084 69.88L271.444 65.272C272.041 68.9413 273.663 71.7573 276.308 73.72C278.953 75.5973 282.281 76.536 286.292 76.536C290.559 76.536 294.143 75.512 297.044 73.464C299.945 71.3307 301.396 68.2587 301.396 64.248C301.396 60.2373 299.903 57.208 296.916 55.16C294.015 53.0267 290.217 51.96 285.524 51.96H276.948V38.008H285.524C289.791 38.008 293.289 37.112 296.02 35.32C298.751 33.4427 300.116 30.7547 300.116 27.256C300.116 23.5867 298.708 20.7707 295.892 18.808C293.076 16.8453 289.663 15.864 285.652 15.864C281.983 15.864 278.825 16.888 276.18 18.936C273.62 20.8987 272.041 23.6293 271.444 27.128L256.084 22.52C257.535 15.352 260.991 9.848 266.452 6.008C271.999 2.08266 278.783 0.119995 286.804 0.119995C296.191 0.119995 303.743 2.59466 309.46 7.544C315.177 12.4933 318.036 18.936 318.036 26.872C318.036 35.064 314.452 41.208 307.284 45.304C315.305 49.656 319.316 56.2693 319.316 65.144C319.316 73.2507 316.287 79.8213 310.228 84.856C304.255 89.8053 296.532 92.28 287.06 92.28ZM398.239 1.39999H414.751V91H396.703V33.144L354.335 91H337.823V1.39999H355.871V59.256L398.239 1.39999ZM431.445 91V1.39999H449.493V38.136H487.253V1.39999H505.301V91H487.253V54.264H449.493V91H431.445ZM570.457 1.39999L606.425 91H587.353L579.673 71.032H541.017L533.337 91H514.265L550.233 1.39999H570.457ZM547.161 54.776H573.401L560.345 21.112L547.161 54.776Z" fill="white"/>
</svg>
