<svg width="992" height="201" viewBox="0 0 992 201" fill="none" xmlns="http://www.w3.org/2000/svg">
<g filter="url(#filter0_d_29_198)">
<rect x="4" width="984" height="193" rx="50" fill="url(#paint0_linear_29_198)"/>
</g>
<path d="M243 130C236.6 130 231.2 128.5 226.8 125.5C222.467 122.433 219.8 118.1 218.8 112.5L230.8 108.9C231.267 111.767 232.533 113.967 234.6 115.5C236.667 116.967 239.267 117.7 242.4 117.7C245.733 117.7 248.533 116.9 250.8 115.3C253.067 113.633 254.2 111.233 254.2 108.1C254.2 104.967 253.033 102.6 250.7 101C248.433 99.3333 245.467 98.5 241.8 98.5H235.1V87.6H241.8C245.133 87.6 247.867 86.9 250 85.5C252.133 84.0333 253.2 81.9333 253.2 79.2C253.2 76.3333 252.1 74.1333 249.9 72.6C247.7 71.0667 245.033 70.3 241.9 70.3C239.033 70.3 236.567 71.1 234.5 72.7C232.5 74.2333 231.267 76.3667 230.8 79.1L218.8 75.5C219.933 69.9 222.633 65.6 226.9 62.6C231.233 59.5333 236.533 58 242.8 58C250.133 58 256.033 59.9333 260.5 63.8C264.967 67.6667 267.2 72.7 267.2 78.9C267.2 85.3 264.4 90.1 258.8 93.3C265.067 96.7 268.2 101.867 268.2 108.8C268.2 115.133 265.833 120.267 261.1 124.2C256.433 128.067 250.4 130 243 130ZM320.459 59L348.559 129H333.659L327.659 113.4H297.459L291.459 129H276.559L304.659 59H320.459ZM302.259 100.7H322.759L312.559 74.4L302.259 100.7ZM355.605 129V59H369.705V87.9H377.405L395.105 59H411.805L390.205 93.2L413.005 129H395.405L377.405 100.6H369.705V129H355.605ZM456.884 59L484.984 129H470.084L464.084 113.4H433.884L427.884 129H412.984L441.084 59H456.884ZM438.684 100.7H459.184L448.984 74.4L438.684 100.7ZM512.531 130C506.131 130 500.731 128.5 496.331 125.5C491.998 122.433 489.331 118.1 488.331 112.5L500.331 108.9C500.798 111.767 502.065 113.967 504.131 115.5C506.198 116.967 508.798 117.7 511.931 117.7C515.265 117.7 518.065 116.9 520.331 115.3C522.598 113.633 523.731 111.233 523.731 108.1C523.731 104.967 522.565 102.6 520.231 101C517.965 99.3333 514.998 98.5 511.331 98.5H504.631V87.6H511.331C514.665 87.6 517.398 86.9 519.531 85.5C521.665 84.0333 522.731 81.9333 522.731 79.2C522.731 76.3333 521.631 74.1333 519.431 72.6C517.231 71.0667 514.565 70.3 511.431 70.3C508.565 70.3 506.098 71.1 504.031 72.7C502.031 74.2333 500.798 76.3667 500.331 79.1L488.331 75.5C489.465 69.9 492.165 65.6 496.431 62.6C500.765 59.5333 506.065 58 512.331 58C519.665 58 525.565 59.9333 530.031 63.8C534.498 67.6667 536.731 72.7 536.731 78.9C536.731 85.3 533.931 90.1 528.331 93.3C534.598 96.7 537.731 101.867 537.731 108.8C537.731 115.133 535.365 120.267 530.631 124.2C525.965 128.067 519.931 130 512.531 130ZM589.99 59L618.09 129H603.19L597.19 113.4H566.99L560.99 129H546.09L574.19 59H589.99ZM571.79 100.7H592.29L582.09 74.4L571.79 100.7ZM636.623 129V71.7H616.123V59H671.223V71.7H650.723V129H636.623ZM678.848 59H692.948V83.2H707.048C714.581 83.2 720.648 85.3 725.248 89.5C729.848 93.7 732.148 99.2333 732.148 106.1C732.148 113.033 729.848 118.6 725.248 122.8C720.648 126.933 714.581 129 707.048 129H678.848V59ZM692.948 95.9V116.3H706.748C710.281 116.3 712.981 115.367 714.848 113.5C716.781 111.633 717.748 109.167 717.748 106.1C717.748 103.033 716.781 100.567 714.848 98.7C712.981 96.8333 710.281 95.9 706.748 95.9H692.948Z" fill="white"/>
<defs>
<filter id="filter0_d_29_198" x="0" y="0" width="992" height="201" filterUnits="userSpaceOnUse" color-interpolation-filters="sRGB">
<feFlood flood-opacity="0" result="BackgroundImageFix"/>
<feColorMatrix in="SourceAlpha" type="matrix" values="0 0 0 0 0 0 0 0 0 0 0 0 0 0 0 0 0 0 127 0" result="hardAlpha"/>
<feOffset dy="4"/>
<feGaussianBlur stdDeviation="2"/>
<feComposite in2="hardAlpha" operator="out"/>
<feColorMatrix type="matrix" values="0 0 0 0 0 0 0 0 0 0 0 0 0 0 0 0 0 0 0.25 0"/>
<feBlend mode="normal" in2="BackgroundImageFix" result="effect1_dropShadow_29_198"/>
<feBlend mode="normal" in="SourceGraphic" in2="effect1_dropShadow_29_198" result="shape"/>
</filter>
<linearGradient id="paint0_linear_29_198" x1="4" y1="96.5" x2="988" y2="96.5" gradientUnits="userSpaceOnUse">
<stop stop-color="#FE5237"/>
<stop offset="1" stop-color="#004DA8"/>
</linearGradient>
</defs>
</svg>
