<svg width="1969" height="374" viewBox="0 0 1969 374" fill="none" xmlns="http://www.w3.org/2000/svg">
<path d="M0 90.0667H44.5279V211.713H179.434V90.0667H223.963V374H179.434V252.284H44.5279V374H0V90.0667ZM287.415 90.0667H475.268V130.639H331.943V211.294H470.328V251.866H331.943V333.428H477.633V374H287.415V90.0667ZM770.684 90.0667V374H726.156V169.537L576.778 374H534.685V90.0667H579.213V294.46L728.591 90.0667H770.684ZM592.154 0H623.741C623.741 19.5191 635.082 32.4854 652.476 32.4854C669.87 32.4854 681.628 19.5191 681.628 0H713.215C713.215 36.1103 688.933 60.4395 652.476 60.4395C616.018 60.4395 592.154 36.1103 592.154 0ZM1134.84 90.0667V374H1090.31V178.042L1004.25 374H965.007L878.387 178.112V374H833.858V90.0667H889.101L984.628 306.171L1080.15 90.4153L1134.84 90.0667ZM1453.91 374H1406.6L1379.47 306.311H1245.46L1218.4 374H1171.02L1287.56 90.1364H1337.37L1453.91 374ZM1362.84 265.739L1312.26 140.259L1261.68 265.739H1362.84ZM1489.53 90.0667H1599.67C1661.18 90.0667 1699.65 126.595 1699.65 183.34C1699.65 240.085 1661.39 276.404 1599.67 276.404H1534.06V374H1489.53V90.0667ZM1600.09 236.042C1634.46 236.042 1653.94 216.174 1653.94 183.34C1653.94 150.506 1634.46 130.639 1600.09 130.639H1534.06V236.042H1600.09ZM1746.62 90.0667H1791.14V213.665H1827.95L1909.35 90.3456H1962.79L1868.44 230.395L1968.42 374H1911.86L1827.67 253.958H1790.86V374H1746.34L1746.62 90.0667Z" fill="url(#paint0_linear_877_148)"/>
<defs>
<linearGradient id="paint0_linear_877_148" x1="0" y1="186.965" x2="1968.42" y2="186.965" gradientUnits="userSpaceOnUse">
<stop stop-color="#16509A"/>
<stop offset="0.08" stop-color="#1A4D94"/>
<stop offset="0.18" stop-color="#264584"/>
<stop offset="0.24" stop-color="#303F76"/>
<stop offset="0.32" stop-color="#3A4073"/>
<stop offset="0.46" stop-color="#55446C"/>
<stop offset="0.65" stop-color="#81495F"/>
<stop offset="0.86" stop-color="#BD514E"/>
<stop offset="1" stop-color="#E75642"/>
</linearGradient>
</defs>
</svg>
