<svg width="968" height="72" viewBox="0 0 968 72" fill="none" xmlns="http://www.w3.org/2000/svg">
<path d="M47.8 0.999995H60.7V71H46.6V25.8L13.5 71H0.6V0.999995H14.7V46.2L47.8 0.999995ZM106.042 72C95.8422 72 87.4089 68.6667 80.7422 62C74.0755 55.2667 70.7422 46.5667 70.7422 35.9C70.7422 25.2333 74.0755 16.6 80.7422 10C87.4089 3.33333 95.8422 -3.8147e-06 106.042 -3.8147e-06C113.842 -3.8147e-06 120.709 1.93333 126.642 5.8C132.642 9.6 136.509 15 138.242 22L124.542 26.1C123.609 22.3667 121.442 19.3333 118.042 17C114.709 14.6667 110.709 13.5 106.042 13.5C100.042 13.5 95.1089 15.6 91.2422 19.8C87.3755 23.9333 85.4422 29.3333 85.4422 36C85.4422 42.6667 87.3755 48.1 91.2422 52.3C95.1089 56.4333 100.042 58.5 106.042 58.5C110.776 58.5 114.809 57.3333 118.142 55C121.542 52.6667 123.709 49.6333 124.642 45.9L138.242 50C136.509 57 132.642 62.4333 126.642 66.3C120.709 70.1 113.842 72 106.042 72ZM162.963 71V13.7H142.463V0.999995H197.563V13.7H177.063V71H162.963ZM259.884 62C253.084 68.6667 244.484 72 234.084 72C223.684 72 215.084 68.6667 208.284 62C201.55 55.2667 198.184 46.5667 198.184 35.9C198.184 25.2333 201.55 16.6 208.284 10C215.084 3.33333 223.684 -3.8147e-06 234.084 -3.8147e-06C244.484 -3.8147e-06 253.084 3.33333 259.884 10C266.684 16.6 270.084 25.2333 270.084 35.9C270.084 46.5667 266.684 55.2667 259.884 62ZM218.784 52.3C222.717 56.4333 227.817 58.5 234.084 58.5C240.35 58.5 245.45 56.4333 249.384 52.3C253.384 48.1667 255.384 42.7333 255.384 36C255.384 29.2667 253.384 23.8333 249.384 19.7C245.45 15.5667 240.35 13.5 234.084 13.5C227.817 13.5 222.717 15.5667 218.784 19.7C214.85 23.8333 212.884 29.2667 212.884 36C212.884 42.7333 214.85 48.1667 218.784 52.3ZM280.09 71V0.999995H307.59C315.79 0.999995 322.123 3.13333 326.59 7.4C331.123 11.6 333.39 17.3333 333.39 24.6C333.39 31.8 331.123 37.5333 326.59 41.8C322.123 46.0667 315.79 48.2 307.59 48.2H294.19V71H280.09ZM294.19 35.5H307.99C311.457 35.5 314.157 34.5333 316.09 32.6C318.023 30.6667 318.99 28 318.99 24.6C318.99 21.2 318.023 18.5333 316.09 16.6C314.157 14.6667 311.457 13.7 307.99 13.7H294.19V35.5ZM390.183 0.999995H403.083V71H388.983V25.8L355.883 71H342.983V0.999995H357.083V46.2L390.183 0.999995ZM467.025 71H452.925V46.2H443.025L427.825 71H412.925L429.325 44.6C424.392 43.0667 420.558 40.4667 417.825 36.8C415.092 33.0667 413.725 28.6667 413.725 23.6C413.725 16.7333 415.925 11.2667 420.325 7.2C424.792 3.06666 431.192 0.999995 439.525 0.999995H467.025V71ZM452.925 33.5V13.7H438.725C435.325 13.7 432.692 14.6333 430.825 16.5C429.025 18.3 428.125 20.6667 428.125 23.6C428.125 26.5333 429.025 28.9333 430.825 30.8C432.692 32.6 435.325 33.5 438.725 33.5H452.925ZM524.516 72C518.116 72 512.716 70.5 508.316 67.5C503.982 64.4333 501.316 60.1 500.316 54.5L512.316 50.9C512.782 53.7667 514.049 55.9667 516.116 57.5C518.182 58.9667 520.782 59.7 523.916 59.7C527.249 59.7 530.049 58.9 532.316 57.3C534.582 55.6333 535.716 53.2333 535.716 50.1C535.716 46.9667 534.549 44.6 532.216 43C529.949 41.3333 526.982 40.5 523.316 40.5H516.616V29.6H523.316C526.649 29.6 529.382 28.9 531.516 27.5C533.649 26.0333 534.716 23.9333 534.716 21.2C534.716 18.3333 533.616 16.1333 531.416 14.6C529.216 13.0667 526.549 12.3 523.416 12.3C520.549 12.3 518.082 13.1 516.016 14.7C514.016 16.2333 512.782 18.3667 512.316 21.1L500.316 17.5C501.449 11.9 504.149 7.6 508.416 4.6C512.749 1.53333 518.049 -3.8147e-06 524.316 -3.8147e-06C531.649 -3.8147e-06 537.549 1.93333 542.016 5.8C546.482 9.66666 548.716 14.7 548.716 20.9C548.716 27.3 545.916 32.1 540.316 35.3C546.582 38.7 549.716 43.8667 549.716 50.8C549.716 57.1333 547.349 62.2667 542.616 66.2C537.949 70.0667 531.916 72 524.516 72ZM601.974 0.999995L630.074 71H615.174L609.174 55.4H578.974L572.974 71H558.074L586.174 0.999995H601.974ZM583.774 42.7H604.274L594.074 16.4L583.774 42.7ZM637.121 71V0.999995H651.221V29.9H658.921L676.621 0.999995H693.321L671.721 35.2L694.521 71H676.921L658.921 42.6H651.221V71H637.121ZM738.4 0.999995L766.5 71H751.6L745.6 55.4H715.4L709.4 71H694.5L722.6 0.999995H738.4ZM720.2 42.7H740.7L730.5 16.4L720.2 42.7ZM794.047 72C787.647 72 782.247 70.5 777.847 67.5C773.514 64.4333 770.847 60.1 769.847 54.5L781.847 50.9C782.314 53.7667 783.58 55.9667 785.647 57.5C787.714 58.9667 790.314 59.7 793.447 59.7C796.78 59.7 799.58 58.9 801.847 57.3C804.114 55.6333 805.247 53.2333 805.247 50.1C805.247 46.9667 804.08 44.6 801.747 43C799.48 41.3333 796.514 40.5 792.847 40.5H786.147V29.6H792.847C796.18 29.6 798.914 28.9 801.047 27.5C803.18 26.0333 804.247 23.9333 804.247 21.2C804.247 18.3333 803.147 16.1333 800.947 14.6C798.747 13.0667 796.08 12.3 792.947 12.3C790.08 12.3 787.614 13.1 785.547 14.7C783.547 16.2333 782.314 18.3667 781.847 21.1L769.847 17.5C770.98 11.9 773.68 7.6 777.947 4.6C782.28 1.53333 787.58 -3.8147e-06 793.847 -3.8147e-06C801.18 -3.8147e-06 807.08 1.93333 811.547 5.8C816.014 9.66666 818.247 14.7 818.247 20.9C818.247 27.3 815.447 32.1 809.847 35.3C816.114 38.7 819.247 43.8667 819.247 50.8C819.247 57.1333 816.88 62.2667 812.147 66.2C807.48 70.0667 801.447 72 794.047 72ZM892.305 62C885.505 68.6667 876.905 72 866.505 72C856.105 72 847.505 68.6667 840.705 62C833.972 55.2667 830.605 46.5667 830.605 35.9C830.605 25.2333 833.972 16.6 840.705 10C847.505 3.33333 856.105 -3.8147e-06 866.505 -3.8147e-06C876.905 -3.8147e-06 885.505 3.33333 892.305 10C899.105 16.6 902.505 25.2333 902.505 35.9C902.505 46.5667 899.105 55.2667 892.305 62ZM851.205 52.3C855.139 56.4333 860.239 58.5 866.505 58.5C872.772 58.5 877.872 56.4333 881.805 52.3C885.805 48.1667 887.805 42.7333 887.805 36C887.805 29.2667 885.805 23.8333 881.805 19.7C877.872 15.5667 872.772 13.5 866.505 13.5C860.239 13.5 855.139 15.5667 851.205 19.7C847.272 23.8333 845.305 29.2667 845.305 36C845.305 42.7333 847.272 48.1667 851.205 52.3ZM912.512 71V0.999995H943.212C950.212 0.999995 955.645 2.7 959.512 6.1C963.445 9.5 965.412 14.1333 965.412 20C965.412 26 962.578 30.5333 956.912 33.6C963.778 37.0667 967.212 42.5667 967.212 50.1C967.212 56.7 965.145 61.8333 961.012 65.5C956.945 69.1667 951.012 71 943.212 71H912.512ZM926.612 28.5H941.812C944.678 28.5 946.878 27.8333 948.412 26.5C950.012 25.1 950.812 23.1667 950.812 20.7C950.812 15.5 947.812 12.9 941.812 12.9H926.612V28.5ZM926.612 59.2H942.112C945.512 59.2 948.112 58.3333 949.912 56.6C951.778 54.8667 952.712 52.5333 952.712 49.6C952.712 46.7333 951.778 44.4667 949.912 42.8C948.045 41.1333 945.445 40.3 942.112 40.3H926.612V59.2Z" fill="white"/>
</svg>
